<svg width="118" height="116" viewBox="0 0 118 116" fill="none" xmlns="http://www.w3.org/2000/svg">
<g clip-path="url(#clip0_0_866)">
<rect width="85" height="2.66667" rx="1.33333" transform="matrix(-1 0 0 1 102.308 17.6665)" fill="#B1B4C5"/>
<path fill-rule="evenodd" clip-rule="evenodd" d="M24.2846 12.3565C23.8044 11.8688 23.0167 11.8728 22.5414 12.3652L16.9245 18.1843C16.4659 18.6593 16.4697 19.4133 16.9329 19.8837C17.4131 20.3714 18.2008 20.3675 18.6761 19.8751L24.293 14.056C24.7516 13.5809 24.7478 12.827 24.2846 12.3565Z" fill="#B1B4C5"/>
<path fill-rule="evenodd" clip-rule="evenodd" d="M24.2846 25.6435C24.7478 25.173 24.7516 24.4191 24.293 23.944L18.6761 18.1249C18.2008 17.6325 17.4131 17.6286 16.9329 18.1163C16.4697 18.5867 16.4659 19.3407 16.9245 19.8157L22.5414 25.6348C23.0167 26.1273 23.8044 26.1312 24.2846 25.6435Z" fill="#B1B4C5"/>
<path d="M54.054 26.836C54.054 27.216 53.93 27.506 53.682 27.706C53.438 27.902 53.122 28 52.734 28H51.39C51.37 28 51.352 27.994 51.336 27.982C51.324 27.966 51.318 27.948 51.318 27.928V23.872C51.318 23.852 51.324 23.836 51.336 23.824C51.352 23.808 51.37 23.8 51.39 23.8H52.644C53.072 23.8 53.404 23.896 53.64 24.088C53.876 24.276 53.994 24.564 53.994 24.952C53.994 25.348 53.84 25.634 53.532 25.81C53.512 25.822 53.51 25.834 53.526 25.846C53.878 26.046 54.054 26.376 54.054 26.836ZM52.194 24.526C52.174 24.526 52.164 24.536 52.164 24.556V25.498C52.164 25.518 52.174 25.528 52.194 25.528H52.65C52.81 25.528 52.936 25.484 53.028 25.396C53.12 25.308 53.166 25.186 53.166 25.03C53.166 24.87 53.12 24.746 53.028 24.658C52.94 24.57 52.814 24.526 52.65 24.526H52.194ZM52.698 27.268C52.858 27.268 52.982 27.222 53.07 27.13C53.162 27.034 53.208 26.9 53.208 26.728C53.208 26.556 53.162 26.422 53.07 26.326C52.982 26.226 52.858 26.176 52.698 26.176H52.194C52.174 26.176 52.164 26.186 52.164 26.206V27.238C52.164 27.258 52.174 27.268 52.194 27.268H52.698ZM57.1377 24.454C57.1377 24.474 57.1297 24.492 57.1137 24.508C57.1017 24.52 57.0857 24.526 57.0657 24.526H55.4577C55.4377 24.526 55.4277 24.536 55.4277 24.556V25.492C55.4277 25.512 55.4377 25.522 55.4577 25.522H56.4597C56.4797 25.522 56.4957 25.53 56.5077 25.546C56.5237 25.558 56.5317 25.574 56.5317 25.594V26.176C56.5317 26.196 56.5237 26.214 56.5077 26.23C56.4957 26.242 56.4797 26.248 56.4597 26.248H55.4577C55.4377 26.248 55.4277 26.258 55.4277 26.278V27.244C55.4277 27.264 55.4377 27.274 55.4577 27.274H57.0657C57.0857 27.274 57.1017 27.282 57.1137 27.298C57.1297 27.31 57.1377 27.326 57.1377 27.346V27.928C57.1377 27.948 57.1297 27.966 57.1137 27.982C57.1017 27.994 57.0857 28 57.0657 28H54.6537C54.6337 28 54.6157 27.994 54.5997 27.982C54.5877 27.966 54.5817 27.948 54.5817 27.928V23.872C54.5817 23.852 54.5877 23.836 54.5997 23.824C54.6157 23.808 54.6337 23.8 54.6537 23.8H57.0657C57.0857 23.8 57.1017 23.808 57.1137 23.824C57.1297 23.836 57.1377 23.852 57.1377 23.872V24.454ZM59.913 28C59.869 28 59.841 27.98 59.829 27.94L59.691 27.352C59.687 27.336 59.677 27.328 59.661 27.328H58.539C58.523 27.328 58.513 27.336 58.509 27.352L58.371 27.94C58.359 27.98 58.333 28 58.293 28H57.567C57.515 28 57.495 27.974 57.507 27.922L58.587 23.86C58.599 23.82 58.627 23.8 58.671 23.8H59.541C59.585 23.8 59.613 23.82 59.625 23.86L60.705 27.922L60.711 27.946C60.711 27.982 60.689 28 60.645 28H59.913ZM58.671 26.638C58.667 26.65 58.669 26.66 58.677 26.668C58.685 26.672 58.693 26.674 58.701 26.674H59.493C59.501 26.674 59.509 26.672 59.517 26.668C59.525 26.66 59.527 26.65 59.523 26.638L59.109 24.898C59.105 24.882 59.099 24.874 59.091 24.874C59.083 24.874 59.077 24.882 59.073 24.898L58.671 26.638ZM63.3264 23.8C63.3464 23.8 63.3624 23.808 63.3744 23.824C63.3904 23.836 63.3984 23.852 63.3984 23.872V24.46C63.3984 24.48 63.3904 24.498 63.3744 24.514C63.3624 24.526 63.3464 24.532 63.3264 24.532H62.4144C62.3944 24.532 62.3844 24.542 62.3844 24.562V27.928C62.3844 27.948 62.3764 27.966 62.3604 27.982C62.3484 27.994 62.3324 28 62.3124 28H61.6104C61.5904 28 61.5724 27.994 61.5564 27.982C61.5444 27.966 61.5384 27.948 61.5384 27.928V24.562C61.5384 24.542 61.5284 24.532 61.5084 24.532H60.6264C60.6064 24.532 60.5884 24.526 60.5724 24.514C60.5604 24.498 60.5544 24.48 60.5544 24.46V23.872C60.5544 23.852 60.5604 23.836 60.5724 23.824C60.5884 23.808 60.6064 23.8 60.6264 23.8H63.3264ZM65.1171 28.048C64.8411 28.048 64.5991 28 64.3911 27.904C64.1831 27.804 64.0211 27.666 63.9051 27.49C63.7931 27.31 63.7371 27.104 63.7371 26.872V26.716C63.7371 26.696 63.7431 26.68 63.7551 26.668C63.7711 26.652 63.7891 26.644 63.8091 26.644H64.4991C64.5191 26.644 64.5351 26.652 64.5471 26.668C64.5631 26.68 64.5711 26.696 64.5711 26.716V26.83C64.5711 26.97 64.6231 27.088 64.7271 27.184C64.8311 27.276 64.9711 27.322 65.1471 27.322C65.3031 27.322 65.4211 27.282 65.5011 27.202C65.5851 27.122 65.6271 27.02 65.6271 26.896C65.6271 26.804 65.6011 26.726 65.5491 26.662C65.4971 26.594 65.4231 26.532 65.3271 26.476C65.2351 26.416 65.0911 26.336 64.8951 26.236C64.6551 26.116 64.4591 26.004 64.3071 25.9C64.1551 25.796 64.0251 25.662 63.9171 25.498C63.8091 25.334 63.7551 25.136 63.7551 24.904C63.7551 24.672 63.8091 24.47 63.9171 24.298C64.0291 24.122 64.1851 23.988 64.3851 23.896C64.5851 23.8 64.8131 23.752 65.0691 23.752C65.3371 23.752 65.5751 23.804 65.7831 23.908C65.9911 24.008 66.1531 24.15 66.2691 24.334C66.3851 24.518 66.4431 24.73 66.4431 24.97V25.09C66.4431 25.11 66.4351 25.128 66.4191 25.144C66.4071 25.156 66.3911 25.162 66.3711 25.162H65.6811C65.6611 25.162 65.6431 25.156 65.6271 25.144C65.6151 25.128 65.6091 25.11 65.6091 25.09V24.982C65.6091 24.838 65.5591 24.718 65.4591 24.622C65.3591 24.526 65.2231 24.478 65.0511 24.478C64.9071 24.478 64.7931 24.516 64.7091 24.592C64.6291 24.664 64.5891 24.766 64.5891 24.898C64.5891 24.99 64.6131 25.07 64.6611 25.138C64.7091 25.206 64.7831 25.272 64.8831 25.336C64.9831 25.396 65.1351 25.476 65.3391 25.576L65.4651 25.648C65.6971 25.776 65.8771 25.888 66.0051 25.984C66.1371 26.076 66.2471 26.194 66.3351 26.338C66.4231 26.482 66.4671 26.656 66.4671 26.86C66.4671 27.224 66.3431 27.514 66.0951 27.73C65.8511 27.942 65.5251 28.048 65.1171 28.048Z" fill="#B1B4C5"/>
</g>
<g clip-path="url(#clip1_0_866)">
<rect x="6.75317" y="52.439" width="85" height="2.66667" rx="1.33333" transform="rotate(40 6.75317 52.439)" fill="#B1B4C5"/>
<path fill-rule="evenodd" clip-rule="evenodd" d="M69.9357 98.5233C70.617 98.4583 71.2179 98.9676 71.2655 99.6504L71.8279 107.719C71.8738 108.377 71.3863 108.952 70.7291 109.015C70.0477 109.08 69.4468 108.571 69.3992 107.888L68.8369 99.8197C68.791 99.1611 69.2785 98.5859 69.9357 98.5233Z" fill="#B1B4C5"/>
<path fill-rule="evenodd" clip-rule="evenodd" d="M61.3948 108.702C61.3423 108.044 61.8241 107.464 62.4807 107.395L70.524 106.548C71.2046 106.476 71.8106 106.979 71.8649 107.661C71.9174 108.32 71.4356 108.9 70.779 108.969L62.7357 109.816C62.0551 109.888 61.4491 109.384 61.3948 108.702Z" fill="#B1B4C5"/>
<path d="M39.245 73.3969C39.0007 73.688 38.7193 73.8305 38.4008 73.8243C38.0879 73.8176 37.7828 73.6895 37.4856 73.4401L36.4561 72.5762C36.4407 72.5634 36.4308 72.5472 36.4263 72.5277C36.4273 72.5078 36.4343 72.4901 36.4472 72.4748L39.0543 69.3677C39.0672 69.3524 39.0821 69.344 39.099 69.3425C39.1215 69.3406 39.1404 69.346 39.1558 69.3589L40.1164 70.1649C40.4442 70.44 40.6369 70.727 40.6942 71.0257C40.7542 71.3215 40.6594 71.6179 40.41 71.9152C40.1555 72.2185 39.8537 72.3386 39.5046 72.2755C39.4816 72.2718 39.4723 72.2797 39.4769 72.2992C39.618 72.6786 39.5407 73.0446 39.245 73.3969ZM39.305 70.4318C39.2897 70.4189 39.2756 70.4202 39.2627 70.4355L38.6572 71.1571C38.6444 71.1724 38.6456 71.1865 38.6609 71.1994L39.0102 71.4925C39.1328 71.5953 39.2576 71.6426 39.3847 71.6343C39.5117 71.6261 39.6254 71.5622 39.7256 71.4427C39.8285 71.3201 39.8729 71.1956 39.859 71.069C39.8482 70.945 39.7799 70.8303 39.6543 70.7249L39.305 70.4318ZM37.9286 72.8563C38.0511 72.9591 38.1757 73.0036 38.3022 72.9897C38.4344 72.9753 38.5558 72.9022 38.6663 72.7704C38.7769 72.6387 38.8278 72.5064 38.819 72.3738C38.8159 72.2406 38.753 72.1226 38.6305 72.0197L38.2444 71.6958C38.2291 71.6829 38.215 71.6842 38.2021 71.6995L37.5388 72.49C37.5259 72.5054 37.5272 72.5194 37.5425 72.5323L37.9286 72.8563ZM43.1383 73.5544C43.1255 73.5697 43.1078 73.5783 43.0853 73.5803C43.0683 73.5818 43.0522 73.5761 43.0369 73.5633L41.8051 72.5297C41.7898 72.5168 41.7757 72.518 41.7628 72.5333L41.1612 73.2504C41.1483 73.2657 41.1496 73.2798 41.1649 73.2926L41.9325 73.9367C41.9478 73.9496 41.9549 73.966 41.9538 73.9859C41.9584 74.0054 41.9542 74.0228 41.9413 74.0381L41.5672 74.484C41.5544 74.4993 41.5367 74.5079 41.5141 74.5099C41.4972 74.5114 41.4811 74.5057 41.4658 74.4929L40.6982 73.8488C40.6829 73.8359 40.6688 73.8372 40.656 73.8525L40.035 74.5925C40.0222 74.6078 40.0234 74.6219 40.0387 74.6347L41.2705 75.6683C41.2859 75.6812 41.293 75.6976 41.2919 75.7176C41.2964 75.7371 41.2923 75.7545 41.2794 75.7698L40.9053 76.2156C40.8924 76.2309 40.8748 76.2396 40.8522 76.2416C40.8353 76.243 40.8192 76.2373 40.8039 76.2245L38.9562 74.6741C38.9408 74.6612 38.9309 74.6451 38.9264 74.6256C38.9275 74.6056 38.9344 74.588 38.9473 74.5727L41.5544 71.4656C41.5673 71.4503 41.5822 71.4419 41.5991 71.4404C41.6216 71.4384 41.6406 71.4438 41.6559 71.4567L43.5036 73.0071C43.5189 73.02 43.526 73.0364 43.5249 73.0563C43.5295 73.0758 43.5253 73.0932 43.5125 73.1085L43.1383 73.5544ZM42.985 78.0547C42.9513 78.0264 42.9427 77.9931 42.9593 77.9548L43.2315 77.4156C43.2387 77.4008 43.2362 77.3882 43.224 77.378L42.3645 76.6567C42.3522 76.6465 42.3394 76.6462 42.326 76.6558L41.8424 77.0176C41.8075 77.0405 41.7747 77.0391 41.7441 77.0134L41.1879 76.5467C41.1481 76.5133 41.1495 76.4805 41.1921 76.4484L44.6304 74.031C44.6653 74.008 44.6996 74.0107 44.7333 74.039L45.3998 74.5982C45.4335 74.6265 45.4421 74.6598 45.4256 74.6982L43.6419 78.5041L43.6311 78.5263C43.6079 78.5539 43.5795 78.5535 43.5458 78.5252L42.985 78.0547ZM42.9091 76.213C42.8983 76.2196 42.8934 76.2286 42.8944 76.2399C42.898 76.2481 42.9028 76.2547 42.9089 76.2599L43.5156 76.769C43.5218 76.7741 43.5292 76.7777 43.5379 76.7798C43.5492 76.7788 43.5571 76.7724 43.5618 76.7607L44.3631 75.1616C44.3703 75.1468 44.3708 75.1368 44.3647 75.1317C44.3586 75.1265 44.3488 75.1288 44.3355 75.1385L42.9091 76.213ZM48.2996 77.0314C48.3149 77.0443 48.322 77.0607 48.3209 77.0807C48.3255 77.1002 48.3213 77.1176 48.3085 77.1329L47.9305 77.5833C47.9177 77.5986 47.9 77.6073 47.8774 77.6093C47.8605 77.6107 47.8444 77.605 47.8291 77.5922L47.1304 77.006C47.1151 76.9931 47.101 76.9943 47.0882 77.0097L44.9246 79.5882C44.9117 79.6035 44.894 79.6121 44.8715 79.6141C44.8546 79.6156 44.8384 79.6099 44.8231 79.597L44.2854 79.1458C44.27 79.133 44.2601 79.1168 44.2556 79.0973C44.2567 79.0773 44.2636 79.0597 44.2765 79.0444L46.4401 76.4659C46.453 76.4505 46.4517 76.4365 46.4364 76.4236L45.7608 75.8567C45.7454 75.8438 45.7355 75.8276 45.731 75.8082C45.7321 75.7882 45.739 75.7705 45.7519 75.7552L46.1298 75.3048C46.1427 75.2895 46.1576 75.2811 46.1745 75.2796C46.197 75.2776 46.216 75.2831 46.2313 75.2959L48.2996 77.0314ZM46.9407 81.4366C46.7293 81.2592 46.5748 81.0669 46.4772 80.8596C46.3821 80.6493 46.3467 80.4395 46.371 80.2301C46.4009 80.0202 46.4904 79.8264 46.6395 79.6487L46.7398 79.5292C46.7526 79.5139 46.7675 79.5055 46.7844 79.504C46.807 79.502 46.8259 79.5074 46.8412 79.5203L47.3698 79.9638C47.3851 79.9767 47.3922 79.9931 47.3911 80.0131C47.3957 80.0325 47.3915 80.0499 47.3787 80.0653L47.3054 80.1526C47.2154 80.2598 47.1794 80.3837 47.1973 80.524C47.2179 80.6614 47.2956 80.7866 47.4304 80.8997C47.5499 81 47.666 81.0452 47.7787 81.0354C47.8945 81.0281 47.9922 80.9769 48.0719 80.8819C48.131 80.8115 48.1613 80.735 48.1626 80.6525C48.1664 80.567 48.1496 80.472 48.1121 80.3674C48.0802 80.2623 48.0213 80.1084 47.9354 79.9058C47.8287 79.6596 47.7505 79.4478 47.7009 79.2705C47.6514 79.0931 47.6379 78.9069 47.6606 78.7118C47.6833 78.5168 47.7692 78.3304 47.9183 78.1527C48.0674 77.975 48.2386 77.8549 48.4319 77.7926C48.6309 77.7298 48.8365 77.7274 49.0488 77.7855C49.2638 77.8405 49.4693 77.9503 49.6654 78.1148C49.8707 78.2871 50.0196 78.4799 50.1121 78.6933C50.2071 78.9036 50.2399 79.1165 50.2105 79.332C50.1811 79.5475 50.0893 79.7472 49.935 79.931L49.8579 80.023C49.845 80.0383 49.8273 80.0469 49.8048 80.0489C49.7879 80.0504 49.7718 80.0447 49.7564 80.0318L49.2279 79.5883C49.2126 79.5755 49.2026 79.5593 49.1981 79.5398C49.1992 79.5199 49.2061 79.5022 49.219 79.4869L49.2884 79.4042C49.381 79.2938 49.4198 79.1698 49.4049 79.032C49.39 78.8941 49.3167 78.77 49.1849 78.6594C49.0746 78.5668 48.9629 78.5227 48.8497 78.5269C48.7421 78.5306 48.6459 78.583 48.561 78.6842C48.5019 78.7546 48.4689 78.8314 48.4619 78.9143C48.455 78.9972 48.4693 79.0954 48.5047 79.2087C48.5428 79.3189 48.6078 79.4779 48.6998 79.6856L48.75 79.8218C48.8455 80.069 48.9114 80.2705 48.9477 80.4263C48.9897 80.5816 48.9981 80.7427 48.9729 80.9096C48.9478 81.0765 48.8697 81.238 48.7385 81.3943C48.5046 81.6731 48.2232 81.8156 47.8943 81.8216C47.5711 81.8272 47.2533 81.6989 46.9407 81.4366Z" fill="#B1B4C5"/>
</g>
<g clip-path="url(#clip2_0_866)">
<rect x="44.8956" y="108.114" width="85" height="2.66667" rx="1.33333" transform="rotate(-40 44.8956 108.114)" fill="#B1B4C5"/>
<path fill-rule="evenodd" clip-rule="evenodd" d="M101.251 53.8941C101.306 53.2119 101.912 52.7085 102.592 52.7802L110.636 53.6274C111.292 53.6966 111.774 54.2765 111.722 54.9347C111.667 55.6169 111.061 56.1203 110.381 56.0486L102.337 55.2014C101.681 55.1322 101.199 54.5522 101.251 53.8941Z" fill="#B1B4C5"/>
<path fill-rule="evenodd" clip-rule="evenodd" d="M109.792 64.0724C109.135 64.0098 108.648 63.4346 108.693 62.776L109.256 54.7078C109.303 54.025 109.904 53.5157 110.586 53.5806C111.243 53.6433 111.73 54.2184 111.684 54.8771L111.122 62.9453C111.074 63.628 110.474 64.1373 109.792 64.0724Z" fill="#B1B4C5"/>
<path d="M71.1774 79.7555C71.4217 80.0466 71.5131 80.3484 71.4517 80.661C71.3907 80.968 71.2117 81.2462 70.9144 81.4956L69.8849 82.3595C69.8696 82.3724 69.8519 82.3794 69.8319 82.3805C69.8125 82.3759 69.7963 82.366 69.7834 82.3507L67.1763 79.2436C67.1634 79.2283 67.1577 79.2121 67.1592 79.1952C67.1612 79.1727 67.1698 79.155 67.1852 79.1421L68.1458 78.3361C68.4736 78.061 68.7897 77.9211 69.0939 77.9165C69.3955 77.9088 69.671 78.0536 69.9204 78.3508C70.175 78.6542 70.2408 78.9722 70.118 79.305C70.1104 79.3271 70.1166 79.3376 70.1366 79.3365C70.5348 79.2634 70.8817 79.4031 71.1774 79.7555ZM68.2677 79.1815C68.2524 79.1943 68.2512 79.2084 68.264 79.2238L68.8695 79.9454C68.8824 79.9607 68.8965 79.9619 68.9118 79.9491L69.2611 79.656C69.3837 79.5531 69.4519 79.4384 69.4658 79.3119C69.4797 79.1853 69.4366 79.0623 69.3363 78.9428C69.2334 78.8202 69.1185 78.7548 68.9915 78.7465C68.8675 78.7357 68.7427 78.783 68.617 78.8884L68.2677 79.1815ZM70.4163 80.958C70.5389 80.8552 70.6043 80.7402 70.6126 80.6132C70.6214 80.4805 70.5705 80.3483 70.4599 80.2165C70.3494 80.0848 70.228 80.0117 70.0958 79.9973C69.9641 79.9773 69.837 80.0187 69.7144 80.1215L69.3283 80.4455C69.313 80.4583 69.3118 80.4724 69.3246 80.4877L69.988 81.2783C70.0008 81.2936 70.0149 81.2948 70.0303 81.282L70.4163 80.958ZM72.0085 75.9486C72.0214 75.9639 72.0268 75.9829 72.0248 76.0054C72.0234 76.0223 72.015 76.0372 71.9996 76.05L70.7678 77.0836C70.7525 77.0965 70.7513 77.1106 70.7641 77.1259L71.3658 77.8429C71.3787 77.8582 71.3927 77.8595 71.4081 77.8466L72.1756 77.2026C72.191 77.1897 72.2084 77.1855 72.2278 77.1901C72.2478 77.189 72.2642 77.1961 72.2771 77.2114L72.6512 77.6573C72.664 77.6726 72.6695 77.6915 72.6675 77.7141C72.666 77.731 72.6576 77.7458 72.6423 77.7587L71.8747 78.4028C71.8594 78.4156 71.8582 78.4297 71.871 78.445L72.492 79.185C72.5048 79.2004 72.5189 79.2016 72.5342 79.1887L73.766 78.1551C73.7813 78.1423 73.7987 78.1381 73.8182 78.1427C73.8382 78.1416 73.8546 78.1487 73.8675 78.164L74.2416 78.6098C74.2544 78.6252 74.2599 78.6441 74.2579 78.6666C74.2564 78.6835 74.248 78.6984 74.2327 78.7113L72.385 80.2617C72.3697 80.2745 72.352 80.2815 72.3321 80.2826C72.3126 80.2781 72.2964 80.2681 72.2836 80.2528L69.6764 77.1457C69.6636 77.1304 69.6579 77.1143 69.6593 77.0974C69.6613 77.0749 69.67 77.0572 69.6853 77.0443L71.533 75.4939C71.5483 75.481 71.5657 75.4769 71.5852 75.4814C71.6051 75.4803 71.6216 75.4874 71.6344 75.5028L72.0085 75.9486ZM76.4139 76.8811C76.3802 76.9093 76.3459 76.912 76.311 76.8891L75.8273 76.5274C75.8139 76.5177 75.8011 76.518 75.7889 76.5283L74.9294 77.2495C74.9171 77.2597 74.9146 77.2723 74.9218 77.2871L75.1941 77.8263C75.2106 77.8646 75.2035 77.8967 75.1729 77.9224L74.6167 78.389C74.5769 78.4225 74.5449 78.4154 74.5206 78.3678L72.737 74.562C72.7204 74.5236 72.729 74.4903 72.7627 74.462L73.4292 73.9028C73.4629 73.8745 73.4972 73.8718 73.5321 73.8948L76.9704 76.3122L76.9905 76.3267C77.0136 76.3543 77.0083 76.3823 76.9746 76.4105L76.4139 76.8811ZM74.587 76.636C74.5916 76.6478 74.5996 76.6542 74.6108 76.6552C74.6195 76.6531 74.627 76.6495 74.6331 76.6443L75.2398 76.1352C75.2459 76.1301 75.2508 76.1234 75.2543 76.1152C75.2553 76.104 75.2504 76.095 75.2396 76.0884L73.804 75.0216C73.7907 75.0119 73.781 75.0096 73.7748 75.0148C73.7687 75.0199 73.7692 75.0299 73.7765 75.0447L74.587 76.636ZM76.329 71.4696C76.3443 71.4567 76.3617 71.4525 76.3812 71.4571C76.4012 71.456 76.4176 71.4631 76.4304 71.4784L76.8084 71.9289C76.8213 71.9442 76.8267 71.9631 76.8247 71.9857C76.8232 72.0026 76.8148 72.0174 76.7995 72.0303L76.1009 72.6165C76.0856 72.6294 76.0843 72.6435 76.0972 72.6588L78.2608 75.2373C78.2737 75.2526 78.2791 75.2715 78.2771 75.2941C78.2757 75.311 78.2673 75.3259 78.2519 75.3387L77.7142 75.79C77.6989 75.8028 77.6812 75.8098 77.6612 75.8109C77.6418 75.8063 77.6256 75.7964 77.6127 75.7811L75.4491 73.2026C75.4363 73.1873 75.4222 73.186 75.4069 73.1989L74.7312 73.7658C74.7159 73.7787 74.6982 73.7857 74.6783 73.7867C74.6588 73.7822 74.6426 73.7723 74.6298 73.7569L74.2518 73.3065C74.239 73.2912 74.2333 73.2751 74.2347 73.2582C74.2367 73.2356 74.2454 73.2179 74.2607 73.2051L76.329 71.4696ZM80.4313 73.5727C80.2198 73.7501 80.0036 73.8689 79.7826 73.9291C79.5589 73.9862 79.3461 73.9846 79.1441 73.9243C78.9426 73.8584 78.7673 73.7366 78.6182 73.5589L78.5179 73.4394C78.5051 73.4241 78.4994 73.408 78.5009 73.3911C78.5028 73.3685 78.5115 73.3508 78.5268 73.338L79.0554 72.8944C79.0707 72.8816 79.0881 72.8774 79.1076 72.882C79.1275 72.8809 79.144 72.888 79.1568 72.9033L79.2301 72.9906C79.3201 73.0979 79.4358 73.1549 79.5771 73.1615C79.7159 73.1652 79.8528 73.1104 79.9876 72.9973C80.1071 72.897 80.1718 72.7905 80.1816 72.6778C80.1946 72.5625 80.1612 72.4574 80.0815 72.3624C80.0223 72.2919 79.9523 72.2489 79.8713 72.2333C79.7877 72.2146 79.6912 72.2147 79.5817 72.2335C79.4726 72.2467 79.3109 72.278 79.0965 72.3273C78.8355 72.3897 78.6133 72.4299 78.4301 72.4479C78.2468 72.4659 78.0611 72.4469 77.8729 72.3906C77.6848 72.3344 77.5161 72.2175 77.367 72.0398C77.2179 71.862 77.1294 71.6726 77.1016 71.4714C77.0742 71.2646 77.1076 71.0617 77.2017 70.8626C77.2932 70.6605 77.437 70.4772 77.6331 70.3126C77.8384 70.1404 78.0541 70.0272 78.2803 69.9732C78.5039 69.9161 78.7193 69.9207 78.9264 69.9871C79.1336 70.0535 79.3143 70.1786 79.4685 70.3625L79.5457 70.4544C79.5585 70.4697 79.564 70.4887 79.562 70.5112C79.5605 70.5281 79.5521 70.543 79.5368 70.5559L79.0082 70.9994C78.9929 71.0122 78.9753 71.0192 78.9553 71.0203C78.9358 71.0158 78.9196 71.0058 78.9068 70.9905L78.8374 70.9078C78.7448 70.7975 78.6294 70.7377 78.4911 70.7284C78.3527 70.7192 78.2177 70.7698 78.086 70.8804C77.9756 70.9729 77.9127 71.0753 77.8972 71.1875C77.8822 71.2941 77.9172 71.398 78.002 71.4991C78.0611 71.5695 78.131 71.6154 78.2114 71.6366C78.2919 71.6579 78.391 71.6609 78.5088 71.6456C78.6239 71.6273 78.7918 71.5909 79.0124 71.5364L79.1552 71.5105C79.4152 71.4594 79.625 71.4295 79.7848 71.4208C79.9451 71.4064 80.1052 71.4261 80.2651 71.4799C80.4251 71.5336 80.5707 71.6386 80.7018 71.7949C80.9358 72.0737 81.0272 72.3756 80.9761 72.7005C80.9254 73.0197 80.7438 73.3105 80.4313 73.5727Z" fill="#B1B4C5"/>
</g>
<g clip-path="url(#clip3_0_866)">
<rect x="104.378" y="86.126" width="85" height="2.66667" rx="1.33333" transform="rotate(-110 104.378 86.126)" fill="#B1B4C5"/>
<path fill-rule="evenodd" clip-rule="evenodd" d="M72.7027 14.6244C72.0802 14.3399 71.8145 13.5984 72.1146 12.9833L75.6617 5.71488C75.9513 5.12155 76.661 4.86719 77.2615 5.14157C77.884 5.42599 78.1498 6.16754 77.8496 6.78261L74.3026 14.0511C74.013 14.6444 73.3032 14.8987 72.7027 14.6244Z" fill="#B1B4C5"/>
<path fill-rule="evenodd" clip-rule="evenodd" d="M85.1887 10.08C84.905 10.6761 84.1978 10.9375 83.5946 10.6691L76.2053 7.38119C75.58 7.10296 75.3069 6.36408 75.601 5.74606C75.8846 5.14988 76.5918 4.8885 77.195 5.1569L84.5843 8.44483C85.2096 8.72306 85.4827 9.46194 85.1887 10.08Z" fill="#B1B4C5"/>
<path d="M86.7184 51.7299C87.0755 51.5999 87.3904 51.6173 87.6632 51.7819C87.9308 51.9442 88.131 52.2076 88.2637 52.5722L88.7234 53.8351C88.7302 53.8539 88.7307 53.8729 88.7249 53.892C88.714 53.9088 88.6991 53.9206 88.6803 53.9274L84.869 55.3146C84.8502 55.3215 84.8331 55.3213 84.8177 55.3141C84.7972 55.3046 84.7835 55.2904 84.7767 55.2716L84.3478 54.0932C84.2014 53.691 84.1781 53.3462 84.2778 53.0588C84.3737 52.7727 84.604 52.5633 84.9686 52.4306C85.3407 52.2952 85.6621 52.3421 85.9328 52.5713C85.951 52.586 85.9629 52.5838 85.9687 52.5647C86.0363 52.1655 86.2862 51.8872 86.7184 51.7299ZM85.1839 54.2678C85.1907 54.2866 85.2036 54.2926 85.2224 54.2857L86.1075 53.9635C86.1263 53.9567 86.1323 53.9439 86.1255 53.9251L85.9695 53.4966C85.9148 53.3462 85.8304 53.2429 85.7162 53.1865C85.602 53.1302 85.4717 53.1287 85.3251 53.182C85.1747 53.2368 85.0739 53.3224 85.0227 53.4389C84.9701 53.5517 84.9719 53.6852 85.0279 53.8393L85.1839 54.2678ZM87.5882 52.8564C87.5334 52.706 87.4478 52.6052 87.3313 52.554C87.2096 52.5004 87.0679 52.503 86.9063 52.5618C86.7447 52.6206 86.6345 52.7097 86.5757 52.829C86.5119 52.9459 86.5073 53.0795 86.562 53.2299L86.7344 53.7035C86.7412 53.7222 86.7541 53.7282 86.7728 53.7214L87.7426 53.3684C87.7614 53.3616 87.7674 53.3488 87.7605 53.33L87.5882 52.8564ZM83.4254 49.6469C83.4442 49.64 83.4639 49.6414 83.4844 49.651C83.4997 49.6581 83.5109 49.6711 83.5177 49.6899L84.0677 51.2009C84.0745 51.2197 84.0873 51.2257 84.1061 51.2189L84.9857 50.8987C85.0045 50.8919 85.0104 50.8791 85.0036 50.8603L84.6609 49.9187C84.6541 49.8999 84.6561 49.8822 84.667 49.8654C84.6728 49.8463 84.6851 49.8333 84.7039 49.8264L85.2508 49.6274C85.2696 49.6205 85.2893 49.6219 85.3098 49.6315C85.3252 49.6386 85.3363 49.6516 85.3431 49.6704L85.6858 50.612C85.6927 50.6308 85.7055 50.6368 85.7243 50.6299L86.632 50.2995C86.6508 50.2927 86.6568 50.2799 86.6499 50.2611L86.1 48.75C86.0931 48.7312 86.0952 48.7135 86.1061 48.6967C86.1119 48.6776 86.1242 48.6646 86.143 48.6578L86.6899 48.4587C86.7087 48.4519 86.7283 48.4532 86.7489 48.4628C86.7642 48.47 86.7753 48.4829 86.7822 48.5017L87.6071 50.7683C87.614 50.7871 87.6145 50.806 87.6087 50.8252C87.5978 50.8419 87.5829 50.8537 87.5641 50.8606L83.7527 52.2478C83.7339 52.2546 83.7168 52.2545 83.7015 52.2473C83.6809 52.2377 83.6673 52.2236 83.6604 52.2048L82.8355 49.9382C82.8286 49.9194 82.8307 49.9017 82.8416 49.8849C82.8474 49.8658 82.8597 49.8528 82.8785 49.8459L83.4254 49.6469ZM85.8083 45.8261C85.8234 45.8675 85.8142 45.9006 85.7807 45.9256L85.2754 46.2564C85.2617 46.2656 85.2576 46.2777 85.2631 46.2928L85.6468 47.3471C85.6523 47.3621 85.6632 47.3688 85.6796 47.3671L86.2794 47.2957C86.321 47.2932 86.3487 47.3108 86.3624 47.3484L86.6107 48.0306C86.6285 48.0795 86.6109 48.1072 86.5579 48.1137L82.3715 48.4881C82.3298 48.4905 82.3015 48.4711 82.2864 48.4297L81.9889 47.6122C81.9738 47.5708 81.983 47.5377 82.0165 47.5127L85.4642 45.1086L85.4847 45.0947C85.5185 45.0824 85.5429 45.0969 85.558 45.1383L85.8083 45.8261ZM84.9533 47.4591C84.9659 47.4587 84.9746 47.4534 84.9794 47.4432C84.9804 47.4343 84.9796 47.4261 84.9768 47.4185L84.706 46.6743C84.7032 46.6668 84.6986 46.66 84.6921 46.6538C84.6819 46.649 84.6718 46.6506 84.6619 46.6584L83.1684 47.6426C83.1547 47.6518 83.1493 47.6602 83.152 47.6677C83.1547 47.6752 83.1643 47.6781 83.1807 47.6764L84.9533 47.4591ZM80.6942 44.055C80.6873 44.0362 80.6894 44.0185 80.7003 44.0017C80.7061 43.9826 80.7184 43.9696 80.7372 43.9627L81.2897 43.7616C81.3085 43.7548 81.3282 43.7562 81.3487 43.7657C81.3641 43.7729 81.3752 43.7859 81.382 43.8047L81.6939 44.6617C81.7008 44.6805 81.7136 44.6864 81.7324 44.6796L84.8954 43.5284C84.9142 43.5215 84.9338 43.5229 84.9544 43.5324C84.9697 43.5396 84.9808 43.5526 84.9877 43.5714L85.2278 44.2311C85.2346 44.2498 85.2351 44.2688 85.2293 44.288C85.2184 44.3047 85.2035 44.3165 85.1848 44.3233L82.0217 45.4746C82.003 45.4814 81.997 45.4942 82.0038 45.513L82.3055 46.3418C82.3123 46.3606 82.3128 46.3796 82.307 46.3987C82.2961 46.4155 82.2812 46.4273 82.2624 46.4341L81.7099 46.6352C81.6911 46.6421 81.674 46.6419 81.6586 46.6347C81.6381 46.6252 81.6245 46.611 81.6176 46.5922L80.6942 44.055ZM84.0736 40.9195C84.168 41.1788 84.2056 41.4227 84.1865 41.651C84.1637 41.8806 84.0894 42.08 83.9637 42.2492C83.8329 42.4161 83.6585 42.5391 83.4405 42.6185L83.2939 42.6718C83.2751 42.6787 83.258 42.6785 83.2426 42.6713C83.2221 42.6618 83.2084 42.6476 83.2016 42.6288L82.9656 41.9804C82.9588 41.9616 82.9608 41.9438 82.9717 41.9271C82.9775 41.908 82.9898 41.895 83.0086 41.8881L83.1158 41.8491C83.2473 41.8013 83.3404 41.712 83.395 41.5815C83.4459 41.4523 83.4413 41.305 83.3811 41.1396C83.3277 40.993 83.2498 40.8958 83.1472 40.848C83.0433 40.7964 82.9331 40.7918 82.8166 40.8343C82.7301 40.8657 82.6657 40.9168 82.6234 40.9876C82.5773 41.0597 82.5443 41.1504 82.5245 41.2598C82.4996 41.3668 82.4737 41.5295 82.4468 41.7478C82.4161 42.0144 82.3779 42.2369 82.3321 42.4153C82.2864 42.5937 82.2049 42.7617 82.0878 42.9193C81.9706 43.0768 81.803 43.1953 81.585 43.2747C81.367 43.354 81.1587 43.3724 80.9601 43.3297C80.7564 43.2846 80.5772 43.1839 80.4223 43.0274C80.2637 42.8723 80.1406 42.6745 80.0531 42.4339C79.9614 42.1821 79.9289 41.9406 79.9554 41.7096C79.9783 41.48 80.0563 41.2792 80.1895 41.1072C80.3228 40.9353 80.5021 40.8083 80.7277 40.7262L80.8404 40.6852C80.8592 40.6783 80.8789 40.6797 80.8994 40.6892C80.9148 40.6964 80.9259 40.7094 80.9327 40.7282L81.1687 41.3766C81.1755 41.3954 81.1761 41.4143 81.1703 41.4335C81.1593 41.4502 81.1445 41.462 81.1257 41.4689L81.0242 41.5058C80.8889 41.555 80.7932 41.6431 80.7372 41.7699C80.6812 41.8967 80.6826 42.0409 80.7414 42.2025C80.7907 42.3378 80.8654 42.432 80.9655 42.4849C81.0605 42.5355 81.1701 42.5382 81.2941 42.493C81.3806 42.4615 81.4475 42.4116 81.495 42.3433C81.5425 42.2749 81.5792 42.1828 81.6051 42.0669C81.6273 41.9524 81.6505 41.7822 81.6747 41.5563L81.6993 41.4133C81.7402 41.1515 81.7839 40.9441 81.8303 40.791C81.8716 40.6355 81.9449 40.4917 82.0501 40.3598C82.1553 40.2279 82.3038 40.127 82.4955 40.0572C82.8375 39.9327 83.1524 39.9501 83.4402 40.1092C83.7229 40.266 83.934 40.5361 84.0736 40.9195Z" fill="#B1B4C5"/>
</g>
<g clip-path="url(#clip4_0_866)">
<rect x="43.246" y="4.73389" width="85" height="2.66667" rx="1.33333" transform="rotate(110 43.246 4.73389)" fill="#B1B4C5"/>
<path fill-rule="evenodd" clip-rule="evenodd" d="M21.5505 79.8676C21.8445 80.4856 21.5714 81.2245 20.9461 81.5027L13.5568 84.7907C12.9536 85.0591 12.2464 84.7977 11.9628 84.2015C11.6687 83.5835 11.9418 82.8446 12.5671 82.5664L19.9564 79.2784C20.5596 79.01 21.2668 79.2714 21.5505 79.8676Z" fill="#B1B4C5"/>
<path fill-rule="evenodd" clip-rule="evenodd" d="M9.06458 75.3233C9.66509 75.0489 10.3749 75.3033 10.6644 75.8966L14.2115 83.165C14.5117 83.7801 14.2459 84.5217 13.6234 84.8061C13.0229 85.0805 12.3131 84.8261 12.0236 84.2328L8.4765 76.9643C8.17633 76.3492 8.44208 75.6077 9.06458 75.3233Z" fill="#B1B4C5"/>
<path d="M34.6648 42.4344C34.3077 42.3044 34.0776 42.0887 33.9745 41.7873C33.8738 41.4909 33.8898 41.1605 34.0225 40.7959L34.4821 39.5329C34.489 39.5141 34.5008 39.4993 34.5175 39.4883C34.5367 39.4825 34.5556 39.4831 34.5744 39.4899L38.3858 40.8771C38.4046 40.884 38.4176 40.8951 38.4248 40.9105C38.4343 40.931 38.4357 40.9506 38.4288 40.9694L37.9999 42.1478C37.8536 42.55 37.6498 42.8291 37.3887 42.9852C37.1313 43.1427 36.8203 43.1551 36.4557 43.0224C36.0836 42.8869 35.8675 42.6444 35.8075 42.2948C35.803 42.2719 35.7924 42.2659 35.7757 42.2768C35.4673 42.5392 35.0971 42.5917 34.6648 42.4344ZM37.4716 41.4766C37.4785 41.4578 37.4725 41.445 37.4537 41.4382L36.5685 41.116C36.5497 41.1091 36.5369 41.1151 36.5301 41.1339L36.3741 41.5624C36.3194 41.7128 36.3176 41.8462 36.3689 41.9628C36.4201 42.0793 36.519 42.1643 36.6656 42.2176C36.8159 42.2723 36.9482 42.2715 37.0624 42.2152C37.1751 42.1626 37.2596 42.0592 37.3157 41.9051L37.4716 41.4766ZM34.7226 41.0124C34.6679 41.1628 34.6687 41.295 34.7251 41.4092C34.7838 41.5285 34.894 41.6175 35.0556 41.6763C35.2173 41.7352 35.3589 41.7378 35.4806 41.6842C35.6047 41.6357 35.694 41.5362 35.7488 41.3859L35.9211 40.9123C35.928 40.8935 35.922 40.8807 35.9032 40.8738L34.9335 40.5209C34.9147 40.514 34.9018 40.52 34.895 40.5388L34.7226 41.0124ZM35.8485 46.1468C35.8297 46.1399 35.8155 46.1263 35.8059 46.1058C35.7988 46.0904 35.7986 46.0733 35.8054 46.0545L36.3554 44.5435C36.3622 44.5247 36.3563 44.5119 36.3375 44.505L35.4579 44.1849C35.4391 44.178 35.4263 44.184 35.4195 44.2028L35.0768 45.1444C35.0699 45.1632 35.0569 45.1755 35.0378 45.1813C35.021 45.1922 35.0033 45.1943 34.9845 45.1874L34.4376 44.9884C34.4188 44.9815 34.4046 44.9678 34.395 44.9473C34.3879 44.932 34.3877 44.9149 34.3945 44.8961L34.7372 43.9545C34.7441 43.9357 34.7381 43.9229 34.7193 43.9161L33.8116 43.5857C33.7928 43.5788 33.78 43.5848 33.7731 43.6036L33.2232 45.1146C33.2163 45.1334 33.2033 45.1457 33.1842 45.1515C33.1674 45.1624 33.1497 45.1645 33.1309 45.1577L32.584 44.9586C32.5652 44.9518 32.551 44.9381 32.5414 44.9176C32.5343 44.9022 32.5341 44.8851 32.5409 44.8663L33.3659 42.5998C33.3727 42.581 33.3845 42.5661 33.4013 42.5552C33.4204 42.5494 33.4394 42.5499 33.4582 42.5567L37.2696 43.944C37.2884 43.9508 37.3013 43.9619 37.3085 43.9773C37.3181 43.9978 37.3194 44.0175 37.3126 44.0363L36.4876 46.3028C36.4808 46.3216 36.4678 46.3339 36.4487 46.3397C36.4319 46.3506 36.4142 46.3527 36.3954 46.3458L35.8485 46.1468ZM31.5671 47.5419C31.5821 47.5006 31.6105 47.4811 31.6522 47.4835L32.2519 47.5549C32.2683 47.5567 32.2793 47.55 32.2848 47.535L32.6685 46.4806C32.674 46.4656 32.6699 46.4535 32.6562 46.4442L32.1509 46.1134C32.1174 46.0885 32.1075 46.0572 32.1212 46.0196L32.3695 45.3374C32.3873 45.2885 32.4185 45.2786 32.4633 45.3077L35.9109 47.7119C35.9444 47.7368 35.9536 47.77 35.9386 47.8113L35.641 48.6288C35.626 48.6702 35.5976 48.6897 35.5559 48.6873L31.3695 48.3128L31.3449 48.3103C31.3111 48.298 31.3017 48.2711 31.3167 48.2298L31.5671 47.5419ZM33.2717 46.8407C33.2618 46.8328 33.2518 46.8313 33.2415 46.836C33.235 46.8422 33.2304 46.849 33.2277 46.8565L32.9568 47.6008C32.954 47.6083 32.9532 47.6165 32.9542 47.6254C32.959 47.6356 32.9677 47.6409 32.9803 47.6413L34.757 47.8474C34.7734 47.8491 34.783 47.8462 34.7857 47.8387C34.7885 47.8311 34.783 47.8228 34.7693 47.8135L33.2717 46.8407ZM34.3463 52.186C34.3395 52.2048 34.3265 52.2171 34.3074 52.2229C34.2906 52.2338 34.2728 52.2359 34.2541 52.229L33.7015 52.0279C33.6827 52.0211 33.6685 52.0074 33.659 51.9869C33.6518 51.9715 33.6516 51.9544 33.6585 51.9356L33.9704 51.0786C33.9772 51.0598 33.9713 51.047 33.9525 51.0402L30.7895 49.8889C30.7707 49.8821 30.7565 49.8684 30.7469 49.8479C30.7398 49.8325 30.7396 49.8155 30.7464 49.7967L30.9865 49.137C30.9934 49.1182 31.0052 49.1033 31.0219 49.0924C31.0411 49.0866 31.06 49.0871 31.0788 49.094L34.2418 50.2452C34.2606 50.252 34.2734 50.2461 34.2803 50.2273L34.5819 49.3985C34.5888 49.3797 34.6006 49.3648 34.6173 49.3539C34.6365 49.3481 34.6554 49.3486 34.6742 49.3554L35.2268 49.5565C35.2456 49.5634 35.2585 49.5745 35.2657 49.5899C35.2753 49.6104 35.2766 49.63 35.2698 49.6488L34.3463 52.186ZM29.7421 52.4157C29.8365 52.1564 29.9644 51.9454 30.1257 51.7828C30.2908 51.6215 30.4759 51.5165 30.681 51.4677C30.8884 51.424 31.1012 51.4418 31.3192 51.5212L31.4658 51.5745C31.4845 51.5814 31.4975 51.5925 31.5047 51.6079C31.5143 51.6284 31.5156 51.648 31.5088 51.6668L31.2728 52.3152C31.266 52.334 31.253 52.3463 31.2338 52.3521C31.2171 52.363 31.1993 52.3651 31.1805 52.3582L31.0734 52.3192C30.9418 52.2714 30.8132 52.2799 30.6874 52.3448C30.5654 52.411 30.4742 52.5268 30.4141 52.6922C30.3607 52.8388 30.3579 52.9634 30.4057 53.0659C30.4522 53.1722 30.5337 53.2466 30.6502 53.289C30.7366 53.3204 30.8188 53.3227 30.8968 53.2957C30.9784 53.2701 31.062 53.2218 31.1475 53.1507C31.2353 53.0848 31.3597 52.9768 31.5207 52.8269C31.7156 52.6424 31.8879 52.4965 32.0376 52.3892C32.1873 52.282 32.3577 52.2056 32.5487 52.1603C32.7398 52.1149 32.9443 52.1318 33.1623 52.2112C33.3803 52.2905 33.5517 52.4104 33.6764 52.5707C33.8034 52.7361 33.876 52.9285 33.8941 53.1479C33.9159 53.3687 33.883 53.5994 33.7954 53.8399C33.7038 54.0918 33.5735 54.2976 33.4046 54.4575C33.2395 54.6188 33.0507 54.7224 32.8381 54.7685C32.6255 54.8146 32.4065 54.7966 32.181 54.7145L32.0682 54.6735C32.0494 54.6666 32.0352 54.6529 32.0257 54.6324C32.0185 54.6171 32.0183 54.6 32.0252 54.5812L32.2611 53.9328C32.268 53.914 32.2798 53.8991 32.2965 53.8882C32.3157 53.8824 32.3346 53.8829 32.3534 53.8898L32.4549 53.9267C32.5902 53.9759 32.7201 53.97 32.8445 53.9089C32.9689 53.8477 33.0605 53.7363 33.1194 53.5747C33.1686 53.4394 33.1719 53.3193 33.1292 53.2144C33.0889 53.1146 33.0068 53.0421 32.8827 52.9969C32.7963 52.9655 32.7129 52.9607 32.6326 52.9825C32.5522 53.0044 32.4649 53.0513 32.3706 53.1234C32.28 53.1968 32.1528 53.3123 31.9891 53.4698L31.8783 53.5636C31.6787 53.7378 31.5119 53.8687 31.3779 53.9561C31.2463 54.0487 31.0978 54.1117 30.9324 54.1451C30.767 54.1786 30.5884 54.1604 30.3967 54.0906C30.0547 53.9661 29.8246 53.7504 29.7064 53.4435C29.5907 53.1417 29.6026 52.7991 29.7421 52.4157Z" fill="#B1B4C5"/>
</g>
<defs>
<clipPath id="clip0_0_866">
<rect width="88" height="21" fill="white" transform="translate(15 11)"/>
</clipPath>
<clipPath id="clip1_0_866">
<rect width="88" height="22" fill="white" transform="translate(14.3647 42.291) rotate(40)"/>
</clipPath>
<clipPath id="clip2_0_866">
<rect width="88" height="22" fill="white" transform="translate(36.2234 98.856) rotate(-40)"/>
</clipPath>
<clipPath id="clip3_0_866">
<rect width="88" height="22" fill="white" transform="translate(92.7123 91.1089) rotate(-110)"/>
</clipPath>
<clipPath id="clip4_0_866">
<rect width="88" height="22" fill="white" transform="translate(55.3855 8.41553) rotate(110)"/>
</clipPath>
</defs>
</svg>
