<svg width="36" height="34" viewBox="0 0 36 34" fill="none" xmlns="http://www.w3.org/2000/svg">
<rect width="30.1625" height="2.45657" rx="1.22828" transform="matrix(0.766044 0.642788 0.642788 -0.766044 4.57715 7.41699)" fill="#B1B4C5"/>
<path fill-rule="evenodd" clip-rule="evenodd" d="M19.6075 26.4168C19.6581 27.0451 20.216 27.5085 20.8429 27.443L28.2585 26.6676C28.8645 26.6042 29.3093 26.0688 29.2604 25.4614C29.2099 24.8332 28.6519 24.3697 28.0251 24.4353L20.6095 25.2106C20.0034 25.274 19.5587 25.8094 19.6075 26.4168Z" fill="#B1B4C5"/>
<path fill-rule="evenodd" clip-rule="evenodd" d="M27.4769 17.0379C26.8703 17.0952 26.4202 17.6262 26.4631 18.234L26.9872 25.6716C27.0315 26.3003 27.5847 26.7693 28.2123 26.71C28.8189 26.6526 29.2689 26.1216 29.2261 25.5138L28.702 18.0762C28.6577 17.4475 28.1044 16.9785 27.4769 17.0379Z" fill="#B1B4C5"/>
</svg>
