<svg width="33" height="36" viewBox="0 0 33 36" fill="none" xmlns="http://www.w3.org/2000/svg">
<rect x="27.8735" y="5.66895" width="30.1625" height="2.45657" rx="1.22828" transform="rotate(127 27.8735 5.66895)" fill="#B1B4C5"/>
<path fill-rule="evenodd" clip-rule="evenodd" d="M17.5025 27.5626C17.5946 28.1862 17.1552 28.7632 16.5296 28.8404L9.1297 29.753C8.52493 29.8276 7.97114 29.406 7.88212 28.8032C7.79004 28.1796 8.2294 27.6026 8.85497 27.5254L16.2549 26.6128C16.8597 26.5382 17.4135 26.9598 17.5025 27.5626Z" fill="#B1B4C5"/>
<path fill-rule="evenodd" clip-rule="evenodd" d="M7.72477 20.1945C8.32877 20.1139 8.88671 20.5301 8.98171 21.132L10.1441 28.4968C10.2424 29.1194 9.80878 29.7008 9.18401 29.7842C8.58001 29.8647 8.02207 29.4486 7.92707 28.8467L6.76465 21.4819C6.66638 20.8593 7.09999 20.2779 7.72477 20.1945Z" fill="#B1B4C5"/>
</svg>
