<svg width="33" height="15" viewBox="0 0 33 15" fill="none" xmlns="http://www.w3.org/2000/svg">
<rect width="29.8901" height="2.5" rx="1.25" transform="matrix(-1 0 0 1 33 6.25)" fill="#B1B4C5"/>
<path fill-rule="evenodd" clip-rule="evenodd" d="M9.5085 1.29199C9.0622 0.827211 8.31766 0.830902 7.87599 1.30009L2.74013 6.75592C2.32891 7.19276 2.33229 7.87527 2.74782 8.30802C3.19412 8.7728 3.93866 8.76911 4.38033 8.29992L9.51619 2.84409C9.92741 2.40725 9.92403 1.72474 9.5085 1.29199Z" fill="#B1B4C5"/>
<path fill-rule="evenodd" clip-rule="evenodd" d="M9.50856 13.7079C9.92409 13.2752 9.92747 12.5927 9.51625 12.1558L4.38039 6.70002C3.93872 6.23083 3.19418 6.22714 2.74788 6.69193C2.33235 7.12467 2.32896 7.80718 2.74019 8.24402L7.87605 13.6999C8.31772 14.169 9.06226 14.1727 9.50856 13.7079Z" fill="#B1B4C5"/>
</svg>
