<svg width="52" height="24" viewBox="0 0 52 24" fill="none" xmlns="http://www.w3.org/2000/svg">
<rect width="52" height="24" fill="#F2F2F2"/>
<g id="Mobile - Modal" clip-path="url(#clip0_0_1)">
<rect width="375" height="750" transform="translate(-160 -279)" fill="white"/>
<g id="Rectangle" filter="url(#filter0_d_0_1)">
<rect x="-160" y="-279" width="375" height="750" rx="8" fill="white"/>
</g>
<g id="Group 16">
<g id="Group 13">
<g id="Group 15">
<rect id="Rectangle_2" width="50" height="4" rx="2" transform="matrix(-1 0 0 1 52 10)" fill="#B1B4C5"/>
<g id="Group 12">
<g id="Group 14">
<path id="Rectangle Copy 2" fill-rule="evenodd" clip-rule="evenodd" d="M12.6453 2.00934C11.9206 1.28749 10.7469 1.29331 10.0294 2.02232L1.43934 10.7505C0.727942 11.4733 0.733707 12.6349 1.45224 13.3507C2.17692 14.0725 3.35064 14.0667 4.06812 13.3377L12.6582 4.60951C13.3696 3.88668 13.3638 2.72507 12.6453 2.00934Z" fill="#B1B4C5"/>
<path id="Rectangle Copy 3" fill-rule="evenodd" clip-rule="evenodd" d="M12.6451 21.9907C13.3637 21.2749 13.3694 20.1133 12.658 19.3905L4.06793 10.6623C3.35045 9.93329 2.17673 9.92747 1.45205 10.6493C0.73352 11.3651 0.727754 12.5267 1.43915 13.2495L10.0292 21.9777C10.7467 22.7067 11.9204 22.7125 12.6451 21.9907Z" fill="#B1B4C5"/>
</g>
</g>
</g>
</g>
</g>
</g>
<defs>
<filter id="filter0_d_0_1" x="-163" y="-279" width="381" height="756" filterUnits="userSpaceOnUse" color-interpolation-filters="sRGB">
<feFlood flood-opacity="0" result="BackgroundImageFix"/>
<feColorMatrix in="SourceAlpha" type="matrix" values="0 0 0 0 0 0 0 0 0 0 0 0 0 0 0 0 0 0 127 0" result="hardAlpha"/>
<feOffset dy="3"/>
<feGaussianBlur stdDeviation="1.5"/>
<feColorMatrix type="matrix" values="0 0 0 0 0 0 0 0 0 0 0 0 0 0 0 0 0 0 0.196706 0"/>
<feBlend mode="normal" in2="BackgroundImageFix" result="effect1_dropShadow_0_1"/>
<feBlend mode="normal" in="SourceGraphic" in2="effect1_dropShadow_0_1" result="shape"/>
</filter>
<clipPath id="clip0_0_1">
<rect width="375" height="750" fill="white" transform="translate(-160 -279)"/>
</clipPath>
</defs>
</svg>
