<svg width="103" height="105" viewBox="0 0 103 105" fill="none" xmlns="http://www.w3.org/2000/svg">
<ellipse cx="51.5" cy="52.5" rx="51.5" ry="52.5" fill="#B1B4C5"/>
<ellipse cx="51.5" cy="50.1724" rx="51.5" ry="50.1724" fill="url(#paint0_linear_0_818)"/>
<ellipse cx="51.5" cy="51.2068" rx="39.5354" ry="39.3103" fill="#E1E4ED"/>
<path fill-rule="evenodd" clip-rule="evenodd" d="M70.4647 32.5477C68.7665 31.6866 66.5681 31.9939 64.2746 33.4127C62.4609 34.5348 60.7959 36.239 59.9295 37.8604C58.2751 40.9563 58.9239 43.6863 59.3414 44.8388C58.7705 46.65 57.9824 48.1551 56.9801 49.3523C56.1721 48.3411 55.7214 47.0672 55.7214 45.7347V45.6698L57.8448 43.4808C58.0717 43.2468 58.6591 42.3248 57.8447 41.4853C57.3103 40.9344 56.4436 40.9344 55.9091 41.4853L55.7212 41.679V41.2384C55.7212 40.4592 55.1084 39.8275 54.3526 39.8275C53.5968 39.8275 52.9839 40.4592 52.9839 41.2384V41.679L52.796 41.4853C52.2616 40.9344 51.3949 40.9344 50.8604 41.4853C50.3259 42.0362 50.3259 42.9297 50.8604 43.4807L52.984 45.6696V45.7346C52.984 47.7506 53.6729 49.6779 54.9079 51.1987C52.6901 52.6408 49.8168 53.1292 46.3044 52.6542C45.0372 52.4826 43.7577 52.4612 42.5035 52.5865C40.9306 51.0011 38.7748 50.1015 36.5042 50.1015H36.4402L34.2863 47.9855C33.7442 47.453 32.8651 47.453 32.323 47.9855C31.7809 48.518 31.7809 49.3817 32.323 49.9143L32.5136 50.1016H32.0801C31.3135 50.1016 30.6919 50.7122 30.6919 51.4654C30.6919 52.2186 31.3135 52.829 32.0801 52.829H32.5137L32.323 53.0164C31.7809 53.5489 31.7809 54.4125 32.323 54.9452C32.5941 55.2115 32.9494 55.3447 33.3046 55.3447C33.6599 55.3447 34.0153 55.2115 34.2864 54.9452L36.4403 52.8291H36.5042C37.3448 52.8291 38.1614 53.0144 38.9018 53.3588C39.0017 53.3317 39.1019 53.3054 39.2024 53.2799C39.1717 53.29 39.141 53.3002 39.1104 53.3104C36.7614 54.0985 34.6427 55.4669 32.9836 57.2675C30.1225 60.3721 29.0747 64.244 29.9535 68.4649C30.6006 71.573 32.0757 73.7753 32.1382 73.8675C32.4028 74.258 32.8397 74.4826 33.2962 74.4826C33.4078 74.4826 33.5205 74.4692 33.6321 74.4416C34.2008 74.3007 34.6219 73.8196 34.6876 73.2358C34.6949 73.1717 35.4539 66.7866 39.3734 63.1739C39.8726 62.7137 41.7599 61.2475 45.0876 61.6976C46.2622 61.8565 47.3984 61.9513 48.4955 61.9821C49.0972 63.15 49.2827 64.5002 49.0011 65.8083L48.9874 65.8716L46.4175 67.5406C45.7707 67.9608 45.5832 68.8314 45.9989 69.4851C46.4146 70.139 47.2759 70.3282 47.9229 69.9082L48.1502 69.7605L48.0577 70.1898C47.8943 70.9493 48.3708 71.6987 49.1221 71.864C49.2219 71.8859 49.3213 71.8964 49.4195 71.8964C50.0601 71.8964 50.6367 71.4468 50.7786 70.7883L50.8711 70.359L51.0172 70.5889C51.2832 71.0073 51.7317 71.2356 52.1897 71.2356C52.4473 71.2356 52.7081 71.1633 52.9411 71.0121C53.5878 70.5919 53.7754 69.7214 53.3596 69.0677L51.7082 66.4702L51.7219 66.4068C52.0484 64.8904 51.956 63.3359 51.4792 61.9C55.2669 61.5702 58.5073 60.3655 61.158 58.295C61.4712 58.0503 61.7756 57.7942 62.0709 57.5267C63.581 58.826 65.5229 59.5533 67.5574 59.5533H67.6211L69.7672 61.6693C70.0374 61.9358 70.3913 62.0688 70.7453 62.0688C71.0992 62.0688 71.4534 61.9357 71.7234 61.6693C72.2636 61.1368 72.2636 60.2732 71.7234 59.7406L71.5335 59.5532H71.9654C72.7291 59.5533 73.3485 58.9427 73.3485 58.1895C73.3485 57.4363 72.7291 56.8257 71.9652 56.8257H71.5333L71.7232 56.6384C72.2634 56.1059 72.2634 55.2423 71.7232 54.7097C71.1831 54.177 70.3073 54.1772 69.7671 54.7097L67.621 56.8256H67.5573C66.2242 56.8256 64.9504 56.3588 63.9495 55.5226C65.477 53.6069 66.6737 51.2903 67.5254 48.595C69.7245 47.8143 71.283 46.5304 72.1623 44.7734C73.7199 41.6609 74.2709 34.4777 70.4647 32.5477Z" fill="#8A90AC"/>
<defs>
<linearGradient id="paint0_linear_0_818" x1="0" y1="0" x2="0" y2="100.345" gradientUnits="userSpaceOnUse">
<stop stop-color="white" stop-opacity="0.0966455"/>
<stop offset="1" stop-color="white" stop-opacity="0.01"/>
</linearGradient>
</defs>
</svg>
