<svg width="103" height="105" viewBox="0 0 103 105" fill="none" xmlns="http://www.w3.org/2000/svg">
<ellipse cx="51.5" cy="52.5" rx="51.5" ry="52.5" fill="#B1B4C5"/>
<ellipse cx="51.5" cy="50.1724" rx="51.5" ry="50.1724" fill="url(#paint0_linear_0_793)"/>
<ellipse cx="51.5" cy="51.2068" rx="39.5354" ry="39.3103" fill="#E1E4ED"/>
<path d="M68.9329 54.218L68.3199 53.6085C66.8551 52.1513 64.4606 51.8339 62.6723 52.8558L58.8536 55.0261L59.6495 37.6434C59.6495 36.1862 58.4574 35 56.9908 35C56.6741 35 56.3693 35.0556 56.0865 35.1574L56.1814 34.2246C56.1815 32.7505 54.9706 31.5518 53.4838 31.5518C52.1088 31.5518 50.9556 32.5772 50.8099 33.8921L48.3595 48.6129C48.3273 48.8133 47.9785 48.7931 47.9412 48.6668L45.0471 36.8648C44.7305 35.767 43.7076 35.0001 42.5595 35.0001C41.7653 35.0001 41.027 35.3553 40.5325 35.975C40.0397 36.5946 39.8603 37.3918 40.0431 38.1605L40.6054 40.537C40.2853 40.5109 39.9636 40.5538 39.657 40.6566C38.5157 41.0346 37.8197 42.1677 38.0043 43.3648L39.7079 53.1035C39.7079 56.9458 40.3852 59.7887 40.9542 61.496C41.2776 62.47 41.4419 63.4946 41.4419 64.541C41.4419 65.4519 41.3149 66.3586 41.0626 67.2341L39.7417 71.8324C39.6671 72.0926 39.7196 72.372 39.8822 72.5884C40.0465 72.8039 40.3022 72.9311 40.5748 72.9311H56.1814C56.4608 72.9311 56.7216 72.798 56.8842 72.5733C57.0484 72.3485 57.0925 72.0589 57.0044 71.7962C56.9959 71.7735 56.2711 69.5476 56.957 66.5194C57.8274 65.8172 60.8739 63.354 61.9678 62.3606C63.7764 60.7181 68.7313 55.6434 68.9414 55.4279C69.2716 55.0902 69.2682 54.5514 68.9329 54.218Z" fill="#8A90AC"/>
<defs>
<linearGradient id="paint0_linear_0_793" x1="0" y1="0" x2="0" y2="100.345" gradientUnits="userSpaceOnUse">
<stop stop-color="white" stop-opacity="0.0966455"/>
<stop offset="1" stop-color="white" stop-opacity="0.01"/>
</linearGradient>
</defs>
</svg>
