<svg width="33" height="37" viewBox="0 0 33 37" fill="none" xmlns="http://www.w3.org/2000/svg">
<rect width="30.1625" height="2.45657" rx="1.22828" transform="matrix(-0.601815 -0.798635 -0.798635 0.601815 27.522 30.9795)" fill="#B1B4C5"/>
<path fill-rule="evenodd" clip-rule="evenodd" d="M17.1509 9.08581C17.243 8.46226 16.8036 7.88519 16.1781 7.80804L8.77814 6.8954C8.17337 6.82082 7.61958 7.24245 7.53056 7.84526C7.43848 8.46881 7.87784 9.04588 8.5034 9.12303L15.9033 10.0357C16.5081 10.1103 17.0619 9.68862 17.1509 9.08581Z" fill="#B1B4C5"/>
<path fill-rule="evenodd" clip-rule="evenodd" d="M7.3732 16.4539C7.9772 16.5345 8.53515 16.1184 8.63015 15.5165L9.79256 8.15165C9.89083 7.52905 9.45722 6.94764 8.83245 6.86429C8.22845 6.7837 7.6705 7.19982 7.5755 7.80172L6.41309 15.1666C6.31482 15.7892 6.74843 16.3706 7.3732 16.4539Z" fill="#B1B4C5"/>
</svg>
