<svg width="35" height="34" viewBox="0 0 35 34" fill="none" xmlns="http://www.w3.org/2000/svg">
<rect x="4.02979" y="26.292" width="30.1625" height="2.45657" rx="1.22828" transform="rotate(-40 4.02979 26.292)" fill="#B1B4C5"/>
<path fill-rule="evenodd" clip-rule="evenodd" d="M19.0602 7.29219C19.1107 6.66391 19.6686 6.20047 20.2955 6.26602L27.7111 7.04139C28.3171 7.10476 28.7619 7.64016 28.713 8.24755C28.6625 8.87583 28.1046 9.33928 27.4777 9.27373L20.0621 8.49835C19.4561 8.43498 19.0113 7.89958 19.0602 7.29219Z" fill="#B1B4C5"/>
<path fill-rule="evenodd" clip-rule="evenodd" d="M26.9295 16.6711C26.3229 16.6138 25.8729 16.0828 25.9157 15.475L26.4398 8.03741C26.4841 7.40866 27.0374 6.9397 27.6649 6.99902C28.2715 7.05637 28.7216 7.58733 28.6787 8.19518L28.1546 15.6327C28.1103 16.2615 27.557 16.7305 26.9295 16.6711Z" fill="#B1B4C5"/>
</svg>
